# xmcd
#
# Track frame offsets: 
#        150
#        15503
#        39390
#        61850
#        84060
#        101920
#        127023
#        144515
#        167358
#
# Disc length: 2432 seconds
#
# Revision: 5
# Processed by: cddbd v1.5.2PL0 Copyright (c) Steve Scherf et al.
# Submitted via: ExactAudioCopy v0.99pb5
#
DISCID=66097e09
DTITLE=Muddy Waters - I'm Ready
DYEAR=1978
DGENRE=
TTITLE0=I'm Ready
TTITLE1=33 Years
TTITLE2=Who Do You Trust?
TTITLE3=Copper Brown
TTITLE4=I'm Your Hoochie Coochie Man
TTITLE5=Mamie
TTITLE6=Rock Me
TTITLE7=Screamin' And Cryin'
TTITLE8=Good Morning Little School Girl
EXTD=
EXTT0=
EXTT1=
EXTT2=
EXTT3=
EXTT4=
EXTT5=
EXTT6=
EXTT7=
EXTT8=
PLAYORDER=
